<?xml version="1.0" encoding="utf-8"?>
<!-- Svg Vector Icons : http://www.onlinewebfonts.com/icon -->
<!DOCTYPE svg PUBLIC "-//W3C//DTD SVG 1.1//EN" "http://www.w3.org/Graphics/SVG/1.1/DTD/svg11.dtd">
<svg version="1.1" xmlns="http://www.w3.org/2000/svg" xmlns:xlink="http://www.w3.org/1999/xlink" x="0px" y="0px" viewBox="0 0 1000 1000" enable-background="new 0 0 1000 1000" xml:space="preserve">
<metadata> Svg Vector Icons : http://www.onlinewebfonts.com/icon </metadata>
<g><g transform="translate(0.000000,511.000000) scale(0.100000,-0.100000)"><path d="M2273,3572v-181.1h3632.4h3632.4V845v-2545.9h181.1H9900v2727v2727H6086.5H2273V3572z"/><path d="M1548.7,2837v-191.7h3632.4h3632.4V110v-2535.2h181.1h181.1v2727v2727H5362.2H1548.7V2837z"/><path d="M824.3,2102v-181.1h3632.4h3632.4V-625v-2545.9h181.1h181.1v2727v2727H4637.8H824.3V2102z"/><path d="M100-987.2V-3533h3813.5H7727v2545.9v2545.9H3913.5H100V-987.2z M7364.8-987.2v-2183.7H3913.5H462.2v2183.7v2183.7h3451.3h3451.3V-987.2z"/><path d="M4738,840.7c-247.1-411.2-2081.4-3608.9-2081.4-3626c0-17,662.6-23.4,2162.4-23.4c1188.8,0,2162.4,4.3,2162.4,10.6c0,10.7-2147.5,3738.9-2162.4,3756C4814.6,962.2,4778.4,908.9,4738,840.7z"/><path d="M1235.5-1952.3c-249.3-430.4-458-798.9-466.6-818.1c-12.8-36.2,40.5-38.3,918.2-38.3s931,2.1,922.5,38.3c-10.7,34.1-879.9,1553.1-909.7,1585C1693.6-1176.8,1484.8-1521.9,1235.5-1952.3z"/></g></g>
</svg>